<svg width="13" height="12" viewBox="0 0 13 12" fill="#AEB6CE" xmlns="http://www.w3.org/2000/svg">
<path d="M1.19621 11.3038C0.805689 10.9133 0.805689 10.2801 1.19621 9.88958L10.3886 0.69719C10.7791 0.306666 11.4123 0.306666 11.8028 0.69719C12.1933 1.08771 12.1933 1.72088 11.8028 2.1114L2.61043 11.3038C2.2199 11.6943 1.58674 11.6943 1.19621 11.3038Z" fill="#AEB6CE"/>
<path d="M1.19621 0.69719C1.58674 0.306666 2.2199 0.306666 2.61043 0.69719L11.8028 9.88958C12.1933 10.2801 12.1933 10.9133 11.8028 11.3038C11.4123 11.6943 10.7791 11.6943 10.3886 11.3038L1.19621 2.1114C0.805689 1.72088 0.805689 1.08771 1.19621 0.69719Z" fill="#AEB6CE"/>
</svg>
