<svg width="22" height="22" viewBox="0 0 22 22" fill="none" xmlns="http://www.w3.org/2000/svg">
<path fill-rule="evenodd" clip-rule="evenodd" d="M5.72 11.44C8.87907 11.44 11.44 8.87907 11.44 5.72C11.44 5.67085 11.4394 5.62184 11.4381 5.57299C12.1397 5.38196 12.8779 5.27999 13.64 5.27999C18.2571 5.27999 22 9.02289 22 13.64C22 18.2571 18.2571 22 13.64 22C9.02289 22 5.27999 18.2571 5.27999 13.64C5.27999 12.8779 5.38196 12.1397 5.57299 11.4381C5.62184 11.4394 5.67085 11.44 5.72 11.44ZM5.57299 11.4381C2.48186 11.3602 0 8.82992 0 5.72C0 2.56093 2.56093 0 5.72 0C8.82992 0 11.3602 2.48186 11.4381 5.57299C8.59084 6.34832 6.34832 8.59084 5.57299 11.4381Z" fill="white"/>
</svg>
