<svg width="24" height="24" viewBox="0 0 24 24" fill="none" xmlns="http://www.w3.org/2000/svg">
<path d="M17 11V8.7847C17 7.00435 16.0533 5.35829 14.5145 4.46296V4.46296C12.9601 3.55862 11.0399 3.55862 9.48553 4.46296V4.46296C7.94669 5.35829 7 7.00435 7 8.7847V11" stroke="#8183A2" stroke-width="1.2" stroke-linecap="round"/>
<path d="M12 17.5V16.5" stroke="#8183A2" stroke-width="1.2" stroke-linecap="round"/>
<path d="M11.0757 15.9243C11.5862 16.4347 12.4138 16.4347 12.9243 15.9243C13.4347 15.4138 13.4347 14.5862 12.9243 14.0757C12.4138 13.5653 11.5862 13.5653 11.0757 14.0757C10.5653 14.5862 10.5653 15.4138 11.0757 15.9243Z" stroke="#8183A2" stroke-width="1.2"/>
<path d="M5 14C5 12.3431 6.34315 11 8 11H16C17.6569 11 19 12.3431 19 14V17C19 18.6569 17.6569 20 16 20H8C6.34315 20 5 18.6569 5 17V14Z" stroke="#8183A2" stroke-width="1.2"/>
</svg>
