<svg width="24" height="24" viewBox="0 0 24 24" fill="none" xmlns="http://www.w3.org/2000/svg">
<path d="M6.7 20H17.3C18.2389 20 19 19.2389 19 18.3V8.77607C19 7.81716 18.5416 6.91602 17.7666 6.35136L13.6931 3.38353C13.351 3.13428 12.9386 3 12.5154 3H6.7C5.76112 3 5 3.76112 5 4.7V18.3C5 19.2389 5.76112 20 6.7 20Z" stroke="#8183A2" stroke-width="1.2"/>
<path d="M15 15L9 15" stroke="#8183A2" stroke-width="1.2" stroke-linecap="round"/>
<path d="M9 10.5L9 12" stroke="#8183A2" stroke-width="1.2" stroke-linecap="round"/>
<path d="M12 9.5L12 12" stroke="#8183A2" stroke-width="1.2" stroke-linecap="round"/>
<path d="M15 8.5L15 12" stroke="#8183A2" stroke-width="1.2" stroke-linecap="round"/>
<path d="M15 17L9 17" stroke="#8183A2" stroke-width="1.2" stroke-linecap="round"/>
</svg>
