<svg width="16" height="16" viewBox="0 0 16 16" fill="none" xmlns="http://www.w3.org/2000/svg">
<path fill-rule="evenodd" clip-rule="evenodd" d="M8 16C12.4183 16 16 12.4183 16 8C16 3.58172 12.4183 0 8 0C3.58172 0 0 3.58172 0 8C0 12.4183 3.58172 16 8 16ZM11.5644 6.49388C11.8372 6.18215 11.8056 5.70833 11.4939 5.43557C11.1822 5.16281 10.7083 5.19439 10.4356 5.50612L7.40814 8.96604L5.46852 7.41435C5.14507 7.15559 4.67311 7.20803 4.41435 7.53148C4.15559 7.85493 4.20803 8.32689 4.53148 8.58565L7.03148 10.5857C7.34489 10.8364 7.80014 10.7959 8.06443 10.4939L11.5644 6.49388Z" fill="#40BF6B"/>
</svg>
