<svg width="24" height="24" viewBox="0 0 24 24" fill="none" xmlns="http://www.w3.org/2000/svg">
<path d="M5 19H19C20.1046 19 21 18.1046 21 17V11C21 9.89543 20.1046 9 19 9H5C3.89543 9 3 9.89543 3 11V17C3 18.1046 3.89543 19 5 19Z" stroke="#8183A2" stroke-width="1.2"/>
<path d="M21 14L3 14" stroke="#8183A2" stroke-width="1.2" stroke-linecap="round"/>
<path d="M12 9V19" stroke="#8183A2" stroke-width="1.2" stroke-linecap="round"/>
<path d="M7 6H17C18.1046 6 19 6.89543 19 8V8.9C19 8.95523 18.9552 9 18.9 9H5.1C5.04477 9 5 8.95523 5 8.9V8C5 6.89543 5.89543 6 7 6Z" stroke="#8183A2" stroke-width="1.2"/>
<path d="M8.90476 4H15.0952C16.1472 4 17 4.85279 17 5.90476C17 5.95736 16.9574 6 16.9048 6H7.09524C7.04264 6 7 5.95736 7 5.90476C7 4.85279 7.85279 4 8.90476 4Z" stroke="#8183A2" stroke-width="1.2"/>
</svg>
