<svg width="24" height="24" viewBox="0 0 24 24" fill="none" xmlns="http://www.w3.org/2000/svg">
<g clip-path="url(#clip0_2042_543)">
<path d="M14 11H16.4384C17.3562 11 18.1561 11.6246 18.3787 12.5149L19.3787 16.5149C19.6943 17.7772 18.7396 19 17.4384 19H6.56155C5.26041 19 4.30569 17.7772 4.62127 16.5149L5.62127 12.5149C5.84385 11.6246 6.64382 11 7.56155 11H10" stroke="#8183A2" stroke-width="1.2"/>
<path d="M10 11H9" stroke="#8183A2" stroke-width="1.2" stroke-linecap="round"/>
<path d="M15 11H14" stroke="#8183A2" stroke-width="1.2" stroke-linecap="round"/>
<path d="M19 15L14.0928 15C14.0405 15 13.997 15.0404 13.9931 15.0925V15.0925C13.8103 17.5605 10.1897 17.5605 10.0069 15.0925V15.0925C10.003 15.0404 9.95952 15 9.9072 15L5 15" stroke="#8183A2" stroke-width="1.2" stroke-linecap="round"/>
<path d="M12 4L9.5 6.5M12 4L14.5 6.5M12 4L12 10.5" stroke="#8183A2" stroke-width="1.2" stroke-linecap="round" stroke-linejoin="round"/>
<path d="M12 12.5L12 13.5" stroke="#8183A2" stroke-width="1.2" stroke-linecap="round" stroke-linejoin="round"/>
</g>
<defs>
<clipPath id="clip0_2042_543">
<rect width="24" height="24" fill="white"/>
</clipPath>
</defs>
</svg>
